<?xml version="1.0" standalone="no"?>
<!DOCTYPE svg PUBLIC "-//W3C//DTD SVG 20010904//EN"
 "http://www.w3.org/TR/2001/REC-SVG-20010904/DTD/svg10.dtd">
<svg version="1.0" xmlns="http://www.w3.org/2000/svg"
 width="1200.000000pt" height="1192.000000pt" viewBox="0 0 1200.000000 1192.000000"
 preserveAspectRatio="xMidYMid meet">

<g transform="translate(0.000000,1192.000000) scale(0.100000,-0.100000)"
fill="#000000" stroke="none">
<path d="M1251 11813 c0 -60 5 -196 9 -303 5 -107 14 -330 19 -495 23 -701 32
-949 42 -1095 6 -85 12 -285 15 -445 2 -159 9 -366 14 -460 6 -93 13 -289 16
-435 2 -146 9 -339 14 -430 6 -91 10 -214 10 -275 1 -126 10 -187 28 -193 6
-2 12 3 12 12 0 22 17 20 30 -4 8 -14 8 -32 0 -60 -11 -41 -1 -80 21 -80 6 0
9 -15 7 -32 -2 -24 -10 -36 -30 -46 -33 -15 -33 -15 -8 -67 15 -33 16 -42 5
-55 -22 -25 -36 -92 -23 -108 10 -11 9 -17 -2 -26 -11 -8 -14 -29 -12 -81 2
-38 7 -74 13 -80 5 -5 9 -1 9 13 0 15 6 22 19 22 26 0 34 -15 22 -38 -6 -11
-6 -24 0 -35 12 -20 -5 -57 -25 -57 -8 0 -16 -10 -19 -22 -8 -31 -11 -337 -4
-344 3 -3 16 1 29 10 12 9 40 16 60 16 35 0 38 2 32 24 -8 32 18 40 49 16 19
-15 36 -18 87 -15 84 6 116 -11 131 -68 7 -31 19 -47 41 -60 22 -13 28 -22 23
-35 -4 -9 -9 -37 -10 -62 -2 -27 -10 -49 -21 -57 -13 -10 -15 -21 -10 -54 4
-22 13 -54 21 -70 8 -15 15 -53 15 -83 0 -60 23 -140 47 -164 33 -34 45 -61
38 -92 -8 -36 10 -62 59 -85 17 -8 45 -27 61 -41 17 -14 55 -37 85 -51 30 -14
66 -36 80 -48 14 -13 48 -29 75 -37 38 -10 51 -19 53 -35 4 -24 63 -74 112
-93 19 -7 40 -18 45 -25 6 -7 26 -17 47 -24 20 -7 39 -18 42 -26 3 -8 13 -15
22 -15 9 0 29 -11 46 -25 28 -24 30 -24 66 -9 20 9 47 20 60 25 12 5 49 6 81
3 37 -4 61 -3 65 4 4 7 17 7 38 1 17 -4 42 -6 55 -3 13 4 30 1 38 -6 11 -9 37
-11 89 -6 61 5 77 3 90 -10 11 -10 25 -14 44 -10 33 7 54 -5 59 -35 2 -13 4
-23 6 -24 1 0 26 -15 54 -32 61 -37 112 -53 167 -53 49 0 106 -20 106 -36 0
-7 34 -48 76 -90 68 -70 75 -81 70 -107 -8 -42 14 -260 27 -274 8 -8 88 -13
247 -17 515 -14 670 -29 670 -66 0 -13 -59 -13 -212 0 -212 18 -692 29 -701
16 -7 -11 -1 -218 8 -262 3 -12 12 -25 22 -28 39 -15 1171 -36 1420 -25 61 2
115 1 119 -4 21 -20 -29 -35 -156 -45 -182 -16 -262 -16 -858 -2 -336 9 -517
9 -523 3 -6 -6 -7 -64 -3 -157 6 -122 10 -148 24 -156 14 -8 1117 -13 1660 -8
205 2 685 -16 770 -28 25 -3 224 -9 442 -13 355 -5 399 -8 414 -23 16 -16 15
-17 -12 -25 -51 -13 -737 -9 -909 7 -124 10 -405 14 -1260 14 l-1100 1 2 -100
c2 -101 19 -221 33 -230 4 -2 556 -6 1226 -8 818 -3 1260 -8 1344 -16 69 -6
247 -16 395 -21 398 -14 453 -27 213 -51 -125 -12 -248 -10 -653 12 -442 24
-2443 27 -2499 4 -16 -7 -17 -16 -12 -84 12 -147 29 -251 42 -262 9 -7 111 -7
351 0 606 19 1712 19 2168 0 127 -5 335 -14 464 -19 211 -9 341 -24 341 -41 0
-15 -303 -19 -640 -8 -697 22 -2643 11 -2669 -16 -14 -15 26 -306 45 -325 5
-5 333 -5 789 1 1020 12 2241 1 2299 -21 11 -4 57 -9 100 -11 l79 -4 9 30 c15
48 36 308 27 332 -5 15 -3 25 8 34 12 11 14 31 10 119 -3 58 -10 141 -17 185
-6 44 -12 118 -14 165 -3 113 -25 292 -36 305 -6 7 -6 15 0 21 5 5 5 75 -1
179 -5 94 -9 197 -9 231 0 33 -9 118 -21 190 -19 114 -33 275 -43 514 -2 41
-6 101 -11 132 -7 56 -7 58 19 67 28 11 34 27 14 33 -7 3 15 10 48 16 33 7 84
21 114 32 68 25 101 25 192 1 40 -11 114 -25 164 -32 95 -12 112 -10 277 35
97 27 124 42 167 97 54 69 71 80 117 79 60 -2 174 11 227 26 27 8 75 14 106
14 84 0 100 24 120 185 7 54 5 75 -5 92 -16 23 -22 165 -9 197 14 35 38 51 80
51 49 1 129 45 152 85 9 15 29 36 44 46 27 18 88 128 103 184 3 14 10 34 15
45 5 11 16 48 24 83 9 34 26 76 38 93 24 32 124 89 156 89 23 0 36 14 49 54 7
24 4 46 -17 107 -15 43 -37 94 -49 114 -11 20 -21 51 -21 70 0 43 -47 133 -79
152 -15 9 -38 24 -54 35 -15 10 -63 26 -107 35 -61 12 -80 20 -80 32 0 10 -5
22 -12 29 -9 9 -4 20 25 50 20 21 37 43 37 50 0 7 4 12 10 12 5 0 12 11 16 25
3 14 29 43 57 65 28 23 57 50 64 60 8 11 20 20 28 20 25 0 40 75 27 126 -17
64 -16 74 13 74 37 0 30 17 -10 24 -46 9 -61 41 -40 89 4 10 3 23 -2 28 -15
15 -42 -23 -51 -73 -5 -25 -16 -55 -25 -68 -8 -12 -13 -29 -10 -36 6 -16 -13
-19 -23 -3 -3 6 -16 9 -29 7 -12 -3 -38 3 -56 13 -19 10 -42 21 -51 25 -9 3
-24 22 -33 41 -9 19 -23 37 -32 40 -8 3 -23 25 -34 49 -16 40 -31 50 -61 45
-5 0 -8 6 -8 14 0 8 -3 15 -8 15 -4 0 -8 28 -9 62 -1 44 -5 64 -17 70 -9 5
-16 15 -16 22 0 8 -9 16 -21 19 -31 8 -23 53 9 49 13 -2 25 3 28 12 8 22 21
20 29 -3 4 -13 12 -17 25 -14 11 3 20 8 20 12 0 14 -25 31 -46 31 -12 0 -24 7
-28 15 -3 8 -11 14 -18 13 -8 -2 -13 8 -14 25 -1 30 3 32 41 17 17 -7 32 -7
43 0 10 5 12 10 5 10 -7 0 -13 4 -13 8 0 5 14 7 30 4 22 -3 30 0 30 11 0 16
-67 60 -80 52 -12 -7 -29 18 -28 40 1 11 -2 37 -6 58 -6 33 -5 37 14 37 15 0
20 6 20 26 0 34 -32 29 -40 -6 -7 -31 -43 -42 -38 -12 2 11 -6 29 -16 41 -16
18 -18 27 -9 54 5 17 6 45 2 60 -4 16 -3 42 3 58 6 19 8 55 3 92 -8 71 -8 62
-1 265 4 108 2 151 -5 146 -6 -4 -15 0 -20 7 -12 19 -11 89 1 89 6 0 10 -9 10
-20 0 -25 20 -27 21 -2 2 33 -3 47 -32 76 -16 16 -29 37 -29 45 0 14 2 14 10
1 8 -12 10 -12 16 4 4 10 2 21 -4 25 -6 3 -12 29 -14 56 -1 28 -6 55 -11 62
-5 7 -13 27 -17 45 -5 18 -18 60 -30 92 -16 47 -17 61 -8 68 9 5 14 1 16 -12
4 -22 22 -28 22 -7 0 13 -23 50 -52 81 -9 10 -27 39 -38 64 -12 24 -39 73 -61
107 -21 34 -39 66 -39 70 0 4 -16 23 -35 42 -20 19 -33 38 -30 43 7 11 -5 40
-17 40 -5 0 -6 -9 -3 -20 3 -11 2 -20 -4 -20 -5 0 -13 9 -16 20 -3 11 -12 20
-19 20 -24 0 -146 167 -146 199 0 9 -11 33 -25 51 -21 29 -24 42 -19 75 5 33
2 44 -16 60 -15 14 -19 26 -15 46 4 19 -1 39 -18 66 -13 21 -26 54 -29 74 -6
35 -36 110 -63 159 -8 14 -22 41 -32 60 -10 19 -24 41 -30 48 -7 7 -13 20 -13
27 0 8 -6 18 -12 22 -14 9 -35 39 -44 63 -16 43 -46 95 -109 189 -39 58 -74
112 -80 120 -5 9 -13 18 -16 21 -3 3 -16 25 -30 50 -13 25 -44 72 -70 105 -25
34 -52 72 -59 85 -7 14 -38 55 -69 92 l-56 68 -2085 0 -2086 0 -16 -27 c-10
-16 -35 -48 -58 -72 -22 -25 -40 -50 -40 -56 0 -7 -6 -18 -14 -24 -7 -6 -35
-48 -62 -94 -61 -104 -72 -119 -144 -196 -33 -35 -62 -72 -66 -83 -3 -10 -15
-29 -27 -42 -52 -57 -58 -72 -33 -82 17 -6 10 -34 -8 -34 -8 0 -11 -12 -9 -32
5 -42 -11 -68 -29 -50 -6 6 -15 12 -19 12 -12 0 -51 -69 -45 -78 5 -8 -10 -54
-42 -132 -5 -14 -22 -42 -36 -63 -14 -21 -26 -49 -26 -62 0 -14 -4 -25 -9 -25
-5 0 -11 -10 -13 -22 -2 -13 -13 -27 -25 -33 -13 -5 -23 -17 -23 -26 0 -8 -11
-38 -25 -65 -14 -27 -25 -53 -25 -57 0 -4 -5 -13 -10 -20 -23 -26 -80 -122
-80 -134 0 -6 -6 -16 -13 -20 -15 -9 -57 -103 -58 -130 0 -14 -3 -12 -10 6 -5
14 -12 75 -14 135 -3 61 -6 134 -8 161 -2 28 -7 199 -11 380 -4 182 -11 427
-16 545 -6 118 -10 261 -10 318 l0 102 -490 0 -490 0 1 -107z m4365 -198 c7
-18 61 -20 67 -2 3 9 7 9 20 -1 13 -11 20 -11 40 3 21 14 26 14 37 1 6 -9 26
-15 43 -14 18 0 49 -9 71 -21 31 -18 44 -20 67 -12 35 12 80 0 111 -29 12 -11
34 -24 48 -27 38 -9 120 -69 120 -88 0 -13 46 -53 65 -57 16 -3 19 -10 17 -36
-3 -26 0 -32 17 -32 11 0 23 -4 26 -10 3 -5 15 -10 25 -10 19 0 42 -55 55
-135 4 -22 12 -49 19 -60 13 -20 21 -57 32 -157 3 -27 9 -48 13 -48 4 0 14
-18 21 -40 7 -22 16 -40 19 -40 11 0 33 -59 26 -70 -3 -5 -1 -10 4 -10 6 0 11
-6 11 -14 0 -7 11 -30 25 -51 42 -61 43 -88 3 -116 -27 -19 -47 -24 -103 -25
-62 -1 -133 -19 -187 -45 -10 -5 -35 -9 -55 -9 -21 0 -71 -9 -112 -20 -41 -11
-83 -20 -94 -20 -25 0 -100 -77 -93 -95 2 -8 8 -30 12 -49 6 -33 9 -36 39 -36
18 0 35 -6 37 -12 5 -14 61 -13 89 2 12 7 33 7 63 0 38 -8 51 -7 78 8 43 23
105 43 143 44 49 2 185 -12 265 -28 106 -21 139 -60 109 -129 -5 -11 -14 -38
-21 -60 -12 -38 -15 -40 -59 -43 -33 -2 -63 4 -105 23 -32 15 -88 33 -124 41
-36 9 -69 19 -75 23 -5 4 -20 8 -33 9 -12 0 -29 8 -38 16 -8 9 -22 16 -29 16
-8 0 -12 6 -9 14 4 11 -4 16 -33 18 -46 4 -123 -13 -123 -27 0 -5 -18 -18 -40
-28 -22 -10 -60 -39 -84 -63 -25 -24 -49 -44 -55 -44 -6 0 -11 -5 -11 -11 0
-6 -12 -26 -26 -44 -15 -20 -23 -39 -18 -46 5 -8 3 -9 -6 -4 -10 6 -12 4 -7
-9 4 -10 -1 -28 -12 -44 -42 -60 -33 -222 16 -271 12 -13 23 -28 23 -32 0 -5
17 -17 38 -28 20 -11 53 -35 71 -55 19 -20 40 -36 46 -36 6 0 28 -12 49 -26
38 -26 40 -26 107 -14 48 8 69 16 69 26 0 23 48 40 71 26 25 -16 50 -15 73 3
17 13 22 13 37 -1 12 -11 40 -16 91 -17 50 -1 72 -6 71 -14 -3 -16 22 -23 77
-22 25 0 54 -1 65 -4 11 -2 35 0 53 4 71 16 219 -98 237 -181 4 -19 11 -40 16
-46 5 -6 15 -58 21 -116 10 -94 9 -118 -11 -248 -23 -153 -30 -185 -62 -290
-39 -130 -49 -187 -53 -300 -5 -126 -22 -243 -37 -248 -5 -2 -9 -12 -9 -21 0
-20 -27 -78 -40 -86 -5 -3 -16 -19 -24 -35 -9 -17 -23 -43 -32 -60 -8 -16 -22
-30 -30 -30 -8 0 -14 -9 -14 -20 0 -11 -7 -23 -15 -27 -9 -3 -22 -21 -30 -39
-8 -20 -21 -34 -32 -34 -12 -1 -26 -19 -42 -51 -14 -32 -55 -83 -107 -134 -46
-46 -84 -89 -84 -95 0 -7 -7 -10 -15 -6 -10 3 -15 -1 -15 -11 0 -17 -37 -70
-79 -115 -14 -15 -32 -34 -39 -43 -8 -9 -26 -18 -41 -21 -17 -4 -32 -16 -39
-32 -22 -51 -67 -102 -122 -139 -30 -20 -57 -40 -60 -44 -3 -4 -16 -9 -30 -10
-14 -2 -29 -14 -35 -26 -7 -17 -18 -23 -43 -23 -18 0 -31 4 -28 9 4 5 -12 7
-36 4 -24 -3 -47 -12 -51 -19 -4 -8 -19 -14 -32 -14 -13 0 -27 -5 -30 -11 -4
-6 -14 -7 -24 -3 -9 4 -29 6 -46 5 -26 -1 -138 12 -200 24 -13 3 -21 13 -22
26 -1 12 -7 25 -14 29 -6 4 -9 13 -5 18 4 6 2 19 -3 29 -30 54 -62 134 -56
143 3 5 -2 10 -13 10 -31 0 -44 61 -25 116 8 24 19 44 24 44 5 0 9 7 9 16 0 8
-4 13 -8 10 -5 -3 -15 7 -23 22 -8 15 -18 30 -24 34 -5 4 0 17 13 31 12 13 22
29 22 35 0 7 11 12 25 12 14 0 25 5 25 11 0 6 11 24 25 41 14 16 25 40 25 54
0 20 -6 25 -40 30 -22 4 -40 10 -40 15 0 5 -6 9 -12 9 -22 1 -70 50 -64 65 3
8 10 15 15 15 15 0 32 62 25 96 -4 25 -1 37 15 53 12 12 21 25 21 31 0 19 52
60 75 60 23 0 25 4 25 45 0 51 5 55 115 93 39 13 74 30 78 38 4 8 14 14 22 14
8 0 17 5 21 12 4 7 3 8 -4 4 -8 -5 -12 0 -12 13 0 18 -7 21 -40 22 -82 3 -96
5 -125 21 -16 9 -44 25 -62 34 -17 9 -34 25 -36 35 -4 14 -15 19 -42 19 -34 0
-37 2 -29 23 4 12 8 45 8 74 1 28 3 51 6 50 3 0 20 3 37 7 48 11 59 -6 59 -93
0 -65 3 -76 23 -92 l23 -19 60 61 c51 53 59 66 53 88 -3 14 -9 37 -11 51 -6
29 -53 60 -89 60 -13 0 -27 4 -30 10 -3 5 -26 18 -50 29 -30 13 -45 26 -45 38
0 10 -10 30 -22 44 -13 14 -30 38 -38 53 -8 16 -22 32 -30 36 -8 4 -30 15 -48
24 -18 10 -39 15 -47 13 -7 -3 -16 1 -19 9 -9 25 -7 72 4 79 6 3 10 14 10 24
0 10 9 26 20 36 16 14 19 26 14 52 -4 21 -2 33 5 33 6 0 11 8 12 18 0 10 3 12
6 4 2 -6 9 -9 14 -6 6 3 7 36 3 79 -6 62 -4 76 11 91 12 12 15 26 10 51 -4 22
-2 33 6 33 7 0 10 24 9 78 -3 96 -2 105 10 97 6 -3 10 1 10 9 0 8 6 19 14 23
16 9 42 111 31 121 -4 4 -10 1 -12 -5 -7 -21 -33 -15 -33 7 0 11 7 20 15 20
18 0 21 56 4 62 -6 2 -13 21 -15 43 -8 101 -24 185 -68 348 -26 100 -37 122
-71 144 -26 17 -35 31 -40 65 -10 60 -27 82 -74 97 -23 6 -41 18 -41 25 0 7
-18 26 -40 41 -22 15 -40 31 -40 35 0 3 -18 16 -40 29 -22 12 -40 26 -40 32 0
5 -18 12 -41 15 -29 5 -48 16 -65 38 -14 17 -25 36 -26 41 0 6 -4 20 -9 33 -6
15 -5 21 1 17 15 -9 12 6 -5 25 -12 14 -14 29 -6 80 7 54 13 68 42 94 20 17
28 31 21 34 -14 4 -16 82 -2 82 6 0 10 -11 10 -25 0 -29 7 -31 32 -8 22 20 23
33 3 33 -11 0 -15 11 -15 40 0 29 4 40 15 40 13 0 15 27 16 178 0 176 5 216
28 218 6 1 18 2 26 3 8 0 15 10 15 20 0 22 49 61 75 61 10 0 25 8 34 18 9 9
33 28 53 42 21 14 38 28 38 33 0 4 18 7 40 7 23 0 40 -5 40 -11 0 -7 14 -10
38 -7 20 3 60 -1 87 -9 59 -15 115 -17 115 -3 0 6 6 10 14 10 7 0 19 7 26 15
7 8 21 15 32 15 10 0 21 -7 24 -15z m-2856 -585 c0 -5 -4 -10 -10 -10 -5 0
-10 5 -10 10 0 6 5 10 10 10 6 0 10 -4 10 -10z m-79 -165 c-22 -41 -32 -53
-37 -41 -7 18 -3 26 26 71 11 17 23 39 27 50 7 19 8 19 11 -2 2 -11 -11 -47
-27 -78z m3846 73 c-3 -8 -6 -5 -6 6 -1 11 2 17 5 13 3 -3 4 -12 1 -19z m1553
-140 c0 -16 -3 -19 -11 -11 -6 6 -8 16 -5 22 11 17 16 13 16 -11z m-5453 -20
c-3 -8 -6 -5 -6 6 -1 11 2 17 5 13 3 -3 4 -12 1 -19z m-41 -97 c-13 -14 -30
-39 -37 -56 -12 -29 -13 -29 -17 -7 -2 16 10 43 35 80 33 50 38 54 41 33 2
-15 -5 -33 -22 -50z m5558 4 c3 -9 0 -15 -9 -15 -8 0 -15 7 -15 15 0 8 4 15 9
15 5 0 11 -7 15 -15z m-5645 -280 c-12 -30 -29 -55 -36 -55 -7 0 -13 -8 -13
-19 0 -10 -7 -24 -15 -31 -24 -20 -19 22 5 50 11 13 20 29 20 37 0 7 4 13 9
13 5 0 18 18 28 41 26 60 28 28 2 -36z m-89 -5 c0 -11 -4 -20 -10 -20 -5 0
-10 9 -10 20 0 11 5 20 10 20 6 0 10 -9 10 -20z m-113 -212 c-3 -7 -5 -2 -5
12 0 14 2 19 5 13 2 -7 2 -19 0 -25z m6029 7 c14 -14 31 -25 39 -25 8 0 12 -6
10 -12 -3 -7 12 -25 33 -40 21 -15 52 -46 68 -70 16 -24 32 -45 35 -48 4 -3
23 -41 44 -85 20 -44 41 -88 46 -97 5 -10 9 -28 9 -41 0 -13 7 -32 15 -43 15
-20 19 -86 6 -118 -5 -14 -10 -16 -15 -8 -4 7 -12 10 -17 7 -5 -4 -9 0 -9 9 0
8 5 16 12 18 7 3 9 12 4 24 -7 18 -8 18 -20 2 -21 -28 -28 -21 -23 25 2 23 2
34 0 25 -6 -24 -14 -22 -41 12 -24 31 -21 70 4 49 26 -22 26 -2 0 26 -15 16
-26 23 -26 16 0 -43 -50 45 -56 100 -2 18 -11 40 -19 49 -8 9 -15 22 -15 29 0
6 -11 22 -25 35 -14 13 -25 26 -25 30 0 4 -18 35 -40 70 -22 35 -40 68 -40 75
0 18 19 13 46 -14z m-4219 -31 c-3 -3 -12 -4 -19 -1 -8 3 -5 6 6 6 11 1 17 -2
13 -5z m37 -69 c4 -10 -1 -15 -14 -15 -20 0 -26 11 -13 23 10 11 20 8 27 -8z
m-86 -26 c-2 -6 -8 -10 -13 -10 -5 0 -11 4 -13 10 -2 6 4 11 13 11 9 0 15 -5
13 -11z m4349 -121 c-3 -8 -6 -5 -6 6 -1 11 2 17 5 13 3 -3 4 -12 1 -19z
m-1865 -54 c63 -35 77 -97 32 -139 -48 -44 -184 -76 -170 -39 3 9 9 34 12 57
4 23 13 51 20 62 8 11 14 32 14 46 0 15 6 29 13 32 13 4 57 -6 79 -19z m-1682
-85 c35 -49 29 -73 -22 -82 -18 -4 -44 -9 -56 -13 l-24 -7 21 41 c13 25 17 43
11 47 -6 3 -10 17 -10 31 0 19 5 24 25 24 18 0 34 -12 55 -41z m-420 -36 c0
-22 -16 -14 -28 12 -20 44 -14 64 8 30 11 -16 20 -36 20 -42z m2105 -151 c11
-8 18 -28 18 -57 1 -11 10 -28 20 -37 19 -17 19 -18 -7 -28 -59 -22 -132 -7
-120 25 3 7 -5 15 -17 18 -19 5 -21 11 -15 38 3 18 12 37 19 41 15 10 89 10
102 0z m2147 -97 c11 -15 9 -55 -2 -55 -6 0 -13 8 -16 18 -3 9 -10 25 -15 34
-15 29 -11 42 9 27 9 -8 20 -18 24 -24z m-3332 -181 c0 -8 -4 -12 -10 -9 -5 3
-10 10 -10 16 0 5 5 9 10 9 6 0 10 -7 10 -16z m-1440 -140 c0 -12 40 -20 73
-15 4 0 7 -2 7 -6 0 -13 130 -15 181 -3 39 10 58 9 102 -4 61 -18 197 -22 197
-6 0 19 70 10 122 -15 60 -29 78 -31 78 -10 0 8 5 15 10 15 6 0 10 -7 10 -15
0 -18 16 -20 23 -2 4 9 8 8 17 -3 9 -11 13 -12 17 -2 2 6 13 12 24 12 10 0 19
5 19 10 0 6 17 10 38 10 27 -1 42 -7 53 -23 15 -21 15 -25 -7 -72 -13 -27 -24
-64 -24 -82 0 -18 -5 -33 -11 -33 -7 0 -9 -39 -7 -117 3 -133 -4 -156 -82
-263 -22 -30 -49 -73 -59 -96 -10 -22 -34 -53 -52 -69 -19 -15 -40 -41 -46
-57 -7 -16 -17 -27 -23 -23 -12 7 -31 -10 -49 -43 -10 -20 -17 -22 -44 -16
-42 9 -95 36 -80 41 32 11 -81 143 -122 143 -14 0 -25 5 -25 10 0 6 -19 10
-42 10 -46 0 -124 34 -146 63 -7 9 -26 17 -43 17 -16 0 -29 3 -29 8 0 4 -15
23 -33 42 -18 19 -42 51 -53 70 -10 19 -22 37 -25 40 -14 12 -29 51 -29 77 0
16 -4 33 -8 39 -26 29 -44 147 -31 199 20 79 44 152 57 172 14 23 42 21 42 -3z
m60 6 c0 -5 -10 -10 -22 -10 -19 0 -20 2 -8 10 19 13 30 13 30 0z m907 -202
c-3 -7 -5 -2 -5 12 0 14 2 19 5 13 2 -7 2 -19 0 -25z m231 -234 c4 -25 -24
-40 -44 -23 -10 8 -11 16 -3 31 13 24 43 19 47 -8z m-3688 -39 c0 -8 -4 -15
-10 -15 -5 0 -10 -7 -10 -15 0 -8 -4 -15 -10 -15 -5 0 -10 7 -10 15 0 8 5 15
10 15 6 0 10 7 10 15 0 8 5 15 10 15 6 0 10 -7 10 -15z m7350 -275 c0 -5 -2
-10 -4 -10 -3 0 -8 5 -11 10 -3 6 -1 10 4 10 6 0 11 -4 11 -10z m-7383 -242
c-3 -8 -6 -5 -6 6 -1 11 2 17 5 13 3 -3 4 -12 1 -19z m7563 -493 c38 -24 52
-45 30 -45 -12 0 -70 28 -70 34 0 3 -3 11 -6 20 -8 22 0 20 46 -9z m-7302
-699 c3 -12 -1 -17 -10 -14 -7 3 -15 13 -16 22 -3 12 1 17 10 14 7 -3 15 -13
16 -22z m-181 -164 c3 -38 -12 -82 -27 -82 -11 0 -13 61 -4 108 8 39 28 23 31
-26z m7900 -96 c-8 -25 -26 -15 -24 13 2 28 3 29 15 14 7 -9 11 -22 9 -27z
m-7697 -1 c0 -7 -7 -18 -15 -25 -8 -7 -12 -17 -9 -22 6 -10 -12 -28 -28 -28
-4 0 -12 9 -18 20 -15 28 35 97 56 79 8 -6 14 -17 14 -24z m7218 -634 c2 -32
-2 -41 -19 -46 -25 -8 -45 8 -33 27 5 7 7 21 6 31 -2 10 2 25 9 33 18 22 35 1
37 -45z m-3378 -281 c0 -5 -7 -10 -16 -10 -8 0 -12 5 -9 10 3 6 10 10 16 10 5
0 9 -4 9 -10z m1781 -377 c19 -9 55 -34 80 -55 26 -21 52 -38 57 -38 23 0 21
-19 -5 -44 -31 -31 -51 -32 -123 -7 l-54 19 3 46 c1 28 -2 46 -8 46 -6 0 -11
11 -11 25 0 29 14 31 61 8z m-2341 -15 c0 -18 -2 -20 -9 -8 -6 8 -7 18 -5 22
9 14 14 9 14 -14z m-21 -50 c1 6 6 12 11 12 15 0 12 -39 -4 -56 -27 -26 -36
-16 -29 31 4 30 2 45 -5 45 -7 0 -9 7 -5 18 6 13 10 8 19 -23 7 -22 13 -34 13
-27z m101 -8 c0 -22 -4 -40 -10 -40 -5 0 -10 18 -10 40 0 22 5 40 10 40 6 0
10 -18 10 -40z m-100 -114 c0 -3 -4 -8 -10 -11 -5 -3 -10 -1 -10 4 0 6 5 11
10 11 6 0 10 -2 10 -4z m977 -95 c-7 -9 -22 -33 -32 -54 -23 -43 -141 -177
-157 -177 -6 0 -26 -11 -44 -25 -18 -14 -38 -25 -44 -25 -16 0 -3 36 23 63 12
13 40 45 62 71 22 27 53 60 68 75 16 14 47 44 70 67 30 29 46 38 55 31 10 -8
10 -13 -1 -26z m-1682 -180 c-11 -4 -69 -5 -130 -1 l-110 7 130 1 c72 0 121
-3 110 -7z m2941 -11 c15 -6 25 -12 23 -14 -2 -2 -48 -7 -103 -11 -80 -6 -98
-5 -94 6 4 12 30 18 130 27 9 1 29 -3 44 -8z m-2481 -10 c3 -5 -3 -10 -14 -10
-12 0 -21 5 -21 10 0 6 6 10 14 10 8 0 18 -4 21 -10z m1625 -29 c0 -16 4 -41
10 -55 8 -22 5 -28 -18 -45 -21 -14 -117 -41 -149 -41 -2 0 -3 8 -3 18 0 10
-5 23 -12 30 -9 9 -9 12 3 12 11 0 14 9 11 34 -5 46 27 70 101 74 l57 3 0 -30z
m-1556 -22 c11 -11 26 -19 34 -19 22 0 72 -33 72 -48 0 -9 9 -12 28 -10 18 2
26 -2 24 -10 -1 -7 5 -15 13 -18 8 -4 15 -10 15 -15 0 -17 -27 -9 -56 16 -16
14 -39 28 -51 31 -13 4 -23 10 -23 15 0 5 -7 9 -15 9 -9 0 -18 6 -21 14 -3 8
-16 17 -30 20 -13 4 -24 11 -24 16 0 6 -7 10 -15 10 -8 0 -15 5 -15 11 0 14
39 1 64 -22z m116 -19 c0 -5 -2 -10 -4 -10 -3 0 -8 5 -11 10 -3 6 -1 10 4 10
6 0 11 -4 11 -10z m653 -37 c10 -13 25 -23 33 -23 9 0 14 -11 14 -30 0 -29
-14 -42 -22 -19 -4 11 -56 -11 -67 -29 -3 -5 -26 -6 -51 -3 -44 6 -45 7 -48
46 -1 22 -4 45 -6 50 -8 22 -4 30 13 27 9 -1 28 2 42 7 33 13 70 2 92 -26z
m304 -89 c-6 -6 -47 9 -47 17 0 5 11 3 25 -3 14 -6 24 -13 22 -14z m-844 -1
c-7 -2 -19 -2 -25 0 -7 3 -2 5 12 5 14 0 19 -2 13 -5z m42 -23 c3 -5 -1 -10
-9 -10 -9 0 -16 5 -16 10 0 6 4 10 9 10 6 0 13 -4 16 -10z m1412 -6 c-3 -3
-12 -4 -19 -1 -8 3 -5 6 6 6 11 1 17 -2 13 -5z m-1297 -54 c0 -5 -7 -10 -15
-10 -8 0 -15 5 -15 10 0 6 7 10 15 10 8 0 15 -4 15 -10z m648 -12 c3 -14 -3
-18 -26 -18 -30 0 -58 21 -45 34 14 14 68 1 71 -16z m547 -3 c-16 -13 -40 -24
-51 -25 -12 0 -27 -7 -34 -15 -14 -17 -40 -20 -40 -6 0 5 10 13 23 17 12 4 24
9 27 13 11 13 66 39 85 40 17 1 16 -3 -10 -24z m867 -27 c43 -16 23 -28 -50
-28 -37 0 -116 -7 -177 -15 -176 -23 -405 -17 -405 11 0 27 37 31 204 27 120
-3 196 1 256 11 87 14 124 13 172 -6z m-1954 -16 c3 -9 -2 -13 -14 -10 -9 1
-19 9 -22 16 -3 9 2 13 14 10 9 -1 19 -9 22 -16z m452 -2 c0 -14 -15 -19 -38
-13 -31 8 -27 18 8 20 17 1 30 -2 30 -7z m-406 -16 c9 -3 14 -10 11 -14 -6
-10 -45 -1 -45 11 0 10 12 11 34 3z m906 -4 c0 -5 -8 -10 -17 -10 -10 0 -27
-7 -37 -15 -11 -8 -31 -15 -45 -15 -21 0 -23 2 -11 10 8 5 23 10 33 10 10 0
25 7 33 15 17 17 44 20 44 5z m-846 -26 c9 -3 14 -10 11 -14 -6 -10 -45 -1
-45 11 0 10 12 11 34 3z m716 -29 c0 -9 -9 -15 -25 -15 -31 0 -33 17 -2 23 12
2 23 5 25 6 1 0 2 -6 2 -14z m-650 -5 c0 -5 -9 -10 -20 -10 -11 0 -20 5 -20
10 0 6 9 10 20 10 11 0 20 -4 20 -10z m129 -24 c6 -7 29 -16 51 -20 22 -3 40
-11 40 -16 0 -15 -57 -12 -73 4 -13 13 -45 23 -85 25 -7 1 -10 6 -7 11 9 15
61 12 74 -4z m438 -2 c-3 -3 -12 -4 -19 -1 -8 3 -5 6 6 6 11 1 17 -2 13 -5z
m-97 -23 c0 -10 -51 -22 -63 -14 -14 8 1 18 32 20 17 1 31 -2 31 -6z m-113
-28 c4 -10 -13 -13 -61 -13 -58 0 -76 6 -62 21 11 10 120 3 123 -8z m448 -148
c218 -26 630 -40 773 -27 117 11 133 11 206 -7 43 -11 80 -22 82 -24 3 -2 -58
-7 -133 -10 -76 -4 -185 -11 -243 -16 -103 -10 -227 -6 -595 20 -88 6 -217 14
-287 18 -69 3 -129 9 -132 12 -3 3 13 15 37 27 51 26 119 28 292 7z"/>
<path d="M4960 11000 c0 -13 5 -20 13 -17 6 2 12 10 12 17 0 7 -6 15 -12 18
-8 2 -13 -5 -13 -18z"/>
<path d="M6083 8978 c2 -18 22 -80 44 -138 22 -58 51 -139 63 -180 13 -41 36
-96 52 -122 16 -25 32 -63 35 -82 3 -20 10 -39 14 -42 5 -3 9 -17 9 -32 0 -15
7 -45 15 -67 8 -22 14 -50 15 -62 0 -22 -4 -23 -70 -23 -56 0 -82 -6 -132 -29
-35 -16 -87 -32 -115 -36 -42 -5 -53 -11 -53 -25 0 -32 25 -43 59 -26 32 17
79 21 96 8 6 -4 18 -19 28 -35 15 -22 21 -26 37 -17 25 13 66 13 106 -2 22 -8
41 -27 63 -65 17 -30 31 -60 32 -66 1 -22 35 -72 51 -75 28 -5 74 123 85 240
6 71 13 83 48 83 51 0 19 127 -56 219 -27 33 -54 78 -60 99 -6 21 -19 54 -30
73 -10 19 -19 39 -19 44 0 17 -74 135 -102 163 -15 16 -28 35 -28 42 0 8 -10
23 -22 35 -12 11 -18 20 -14 20 4 0 -4 14 -18 31 -14 17 -26 35 -26 40 0 5 -7
9 -17 9 -9 0 -31 11 -49 25 -42 32 -47 32 -41 -7z"/>
<path d="M5380 8760 c0 -5 5 -10 10 -10 6 0 10 5 10 10 0 6 -4 10 -10 10 -5 0
-10 -4 -10 -10z"/>
<path d="M6228 7169 c-27 -15 -21 -26 12 -21 17 2 30 10 30 18 0 16 -18 18
-42 3z"/>
<path d="M6150 7080 c-25 -22 -50 -40 -55 -40 -14 0 -38 -40 -30 -48 4 -4 17
5 30 21 13 15 28 27 33 27 10 0 72 66 72 75 0 9 -4 6 -50 -35z"/>
<path d="M0 11537 l0 -125 68 -17 c37 -9 84 -21 106 -26 21 -6 75 -14 120 -19
44 -5 97 -14 117 -20 35 -10 37 -13 40 -58 4 -61 4 -178 0 -489 -1 -139 0
-257 4 -263 9 -15 23 -12 45 10 18 18 20 33 20 128 0 59 4 145 9 192 5 47 12
207 16 356 7 312 3 337 -56 347 -19 3 -77 15 -129 27 -52 11 -105 22 -117 25
-13 2 -27 6 -32 9 -5 4 -47 13 -94 21 -46 8 -92 17 -101 21 -14 5 -16 -8 -16
-119z"/>
<path d="M2735 11190 c3 -5 8 -10 11 -10 2 0 4 5 4 10 0 6 -5 10 -11 10 -5 0
-7 -4 -4 -10z"/>
<path d="M463 10430 c-12 -5 -25 -19 -27 -32 -5 -22 -16 -540 -20 -938 -1
-107 -6 -228 -11 -267 -5 -50 -4 -73 3 -73 6 0 12 -17 14 -37 l4 -38 13 30 c9
20 15 82 16 190 1 88 8 176 14 195 14 43 14 111 0 169 -7 34 -7 46 3 52 6 4
12 27 12 51 0 24 3 129 7 233 13 321 14 468 4 471 -6 2 -20 -1 -32 -6z"/>
<path d="M8894 9094 c12 -37 32 -48 22 -11 -3 12 -6 25 -6 28 0 4 -6 9 -13 12
-11 4 -11 -2 -3 -29z"/>
<path d="M8810 9001 c0 -11 5 -23 10 -26 6 -4 10 5 10 19 0 14 -4 26 -10 26
-5 0 -10 -9 -10 -19z"/>
<path d="M432 8818 c-1 -10 -9 -18 -17 -18 -11 0 -15 -11 -15 -40 0 -29 4 -40
15 -40 21 0 21 -76 -1 -88 -20 -11 -16 -97 5 -97 23 0 28 42 21 175 -4 69 -8
117 -8 108z"/>
<path d="M8871 8750 c-1 -14 -8 -38 -16 -55 l-13 -30 -1 31 c-1 26 -6 33 -26
36 -14 3 -25 1 -25 -3 0 -5 5 -9 10 -9 6 0 9 -19 8 -42 l-3 -43 40 2 c57 2 57
2 49 14 -4 7 -10 37 -14 68 -4 31 -8 45 -9 31z"/>
<path d="M8998 8343 c7 -3 16 -2 19 1 4 3 -2 6 -13 5 -11 0 -14 -3 -6 -6z"/>
<path d="M8945 8330 c-3 -5 1 -10 9 -10 9 0 16 5 16 10 0 6 -4 10 -9 10 -6 0
-13 -4 -16 -10z"/>
<path d="M400 8271 c0 -27 6 -63 14 -81 l13 -33 4 34 c8 61 -2 129 -17 129
-10 0 -14 -14 -14 -49z"/>
<path d="M9060 8290 c0 -5 5 -10 10 -10 6 0 10 5 10 10 0 6 -4 10 -10 10 -5 0
-10 -4 -10 -10z"/>
<path d="M8922 8188 c2 -12 11 -24 21 -26 24 -5 22 25 -4 38 -18 10 -20 9 -17
-12z"/>
<path d="M9201 8044 c0 -11 3 -14 6 -6 3 7 2 16 -1 19 -3 4 -6 -2 -5 -13z"/>
<path d="M8938 8003 c7 -3 16 -2 19 1 4 3 -2 6 -13 5 -11 0 -14 -3 -6 -6z"/>
<path d="M401 7968 c0 -18 4 -55 9 -83 7 -47 7 -45 9 33 0 49 -3 82 -9 82 -5
0 -10 -15 -9 -32z"/>
<path d="M9222 7988 c6 -18 28 -21 28 -4 0 9 -7 16 -16 16 -9 0 -14 -5 -12
-12z"/>
<path d="M411 7694 c0 -11 3 -14 6 -6 3 7 2 16 -1 19 -3 4 -6 -2 -5 -13z"/>
<path d="M281 5444 c0 -11 3 -14 6 -6 3 7 2 16 -1 19 -3 4 -6 -2 -5 -13z"/>
<path d="M249 5305 c-1 -16 -1 -55 0 -85 0 -41 -2 -50 -8 -35 -7 14 -10 16
-11 5 -9 -89 -9 -110 0 -110 5 0 10 13 10 28 0 15 5 33 10 38 15 15 24 135 12
164 l-11 25 -2 -30z"/>
<path d="M4415 2674 c-126 -7 -237 -11 -245 -8 -8 2 -22 -1 -30 -6 -15 -9 -12
-28 19 -145 6 -22 18 -75 27 -117 l16 -77 576 5 c318 3 749 9 959 14 236 6
573 6 880 0 532 -10 645 -15 674 -30 52 -28 69 25 69 216 0 107 -3 144 -13
153 -10 8 -36 8 -91 1 -51 -6 -119 -6 -199 0 -180 15 -2351 10 -2642 -6z"/>
<path d="M5420 2269 c-278 -5 -662 -12 -855 -17 l-350 -7 2 -70 c4 -91 38
-265 55 -277 12 -9 1186 -3 1298 6 25 2 297 7 605 11 584 6 1069 -4 1119 -24
16 -6 32 -9 35 -5 11 11 18 348 7 372 -9 20 -15 23 -50 17 -50 -7 -185 -7
-846 -1 -283 2 -742 0 -1020 -5z"/>
<path d="M7296 1853 c-4 -4 -249 -6 -544 -5 -295 2 -697 -1 -892 -7 -417 -12
-908 -20 -1285 -21 -148 0 -277 -4 -284 -9 -13 -8 -13 -19 -3 -73 6 -35 19
-108 27 -163 9 -55 19 -109 22 -119 5 -19 20 -19 522 -13 284 4 680 11 881 16
778 21 1469 18 1549 -8 56 -17 60 -3 60 199 0 130 -3 179 -13 193 -14 18 -28
22 -40 10z"/>
<path d="M7275 1418 c-22 -5 -274 -10 -575 -12 -294 -1 -791 -10 -1105 -19
-434 -13 -1032 -26 -1227 -27 -11 0 -9 -87 2 -136 5 -23 14 -81 19 -129 6 -50
16 -92 23 -97 8 -6 221 -7 503 -3 570 7 664 9 1000 26 293 14 1151 7 1230 -10
28 -6 68 -14 90 -18 l40 -7 -60 -7 c-33 -4 -307 -7 -608 -8 -301 -1 -589 -5
-640 -11 -107 -11 -621 -28 -1153 -39 -203 -4 -376 -11 -383 -15 -8 -5 -11
-19 -7 -40 3 -17 13 -84 21 -148 8 -64 20 -129 25 -144 l11 -27 237 6 c426 12
814 27 947 38 176 14 1302 24 1335 11 23 -9 21 -10 -26 -20 -58 -13 -185 -19
-504 -27 -118 -3 -366 -12 -550 -20 -184 -8 -463 -20 -620 -26 -157 -6 -402
-16 -545 -23 l-260 -11 3 -70 c3 -97 32 -267 48 -284 11 -12 47 -13 246 -3
128 7 316 14 418 17 102 2 248 9 325 14 77 6 235 15 350 21 116 7 280 16 365
21 85 5 247 11 360 15 170 5 208 4 224 -8 17 -13 9 -16 -80 -32 -55 -9 -194
-21 -309 -26 -116 -5 -275 -13 -355 -19 -80 -5 -262 -17 -405 -26 -143 -9
-280 -18 -305 -20 -25 -3 -214 -10 -420 -15 -206 -6 -381 -13 -387 -15 -7 -2
-13 -14 -13 -25 l0 -20 1329 0 1329 0 6 27 c3 16 8 62 10 103 3 41 9 89 14
105 16 49 31 134 42 240 7 55 16 118 21 140 22 98 28 188 28 453 1 156 3 288
6 293 5 7 -21 71 -28 68 -1 -1 -20 -5 -42 -11z"/>
<path d="M1490 1168 c0 -60 -20 -108 -67 -158 -25 -28 -52 -50 -58 -50 -25 0
-35 -96 -12 -119 15 -15 12 -272 -4 -281 -5 -4 -12 -58 -15 -121 -3 -63 -12
-146 -20 -186 -8 -40 -14 -113 -14 -163 l0 -90 112 0 c61 0 109 3 105 6 -3 4
0 13 8 21 20 19 19 82 -2 195 -19 99 -21 288 -8 756 6 198 5 222 -9 222 -11 0
-16 -10 -16 -32z"/>
</g>
</svg>
